<?xml version="1.0" standalone="no"?><!DOCTYPE svg PUBLIC "-//W3C//DTD SVG 1.1//EN" "http://www.w3.org/Graphics/SVG/1.1/DTD/svg11.dtd"><svg t="1653748880469" class="icon" viewBox="0 0 1024 1024" version="1.1" xmlns="http://www.w3.org/2000/svg" p-id="1367" xmlns:xlink="http://www.w3.org/1999/xlink" width="23" height="23"><defs><style type="text/css">@font-face { font-family: feedback-iconfont; src: url("//at.alicdn.com/t/font_1031158_u69w8yhxdu.woff2?t=1630033759944") format("woff2"), url("//at.alicdn.com/t/font_1031158_u69w8yhxdu.woff?t=1630033759944") format("woff"), url("//at.alicdn.com/t/font_1031158_u69w8yhxdu.ttf?t=1630033759944") format("truetype"); }
</style></defs><path d="M496.45055851 138.50891623L188.10491152 387.64428548c0 0.28262636 0 0.70656659 0 0.98919295l0 459.26826531c0 7.06566585 5.65253266 12.7181985 12.71819849 12.7181985l132.83451352 0c7.06566585 0 12.7181985-5.65253266 12.71819849-12.7181985L346.37582064 638.75804062c0-41.26348681 33.63256826-74.89605506 74.89605507-74.89605506l154.03151102 0c41.26348681 0 74.89605506 33.63256826 74.89605505 74.89605506l0 209.14370175c0 7.06566585 5.65253266 12.7181985 12.7181985 12.71819849l128.59511402 0c7.06566585 0 12.7181985-5.65253266 12.7181985-12.71819849L804.2309528 388.63347843c0-0.98919294 0-1.8370734 0.14131386-2.68495247L512.70158994 138.79154259C508.03825019 134.83476945 501.11389823 134.69345558 496.45055851 138.50891623zM955.57750996 432.44060521l-402.74294003-341.13033619c-27.41478287-23.17538338-67.54776288-23.7406361-95.52779847-1.1305068L55.270398 415.05906837c-13.42476509 10.73981123-15.40315097 30.3823617-4.66333972 43.6658129 10.73981123 13.42476509 30.3823617 15.40315097 43.66581292 4.66333973l31.65418238-25.57770948L125.92705358 847.90174374c0 41.26348681 33.63256826 74.89605506 74.89605505 74.89605507l132.83451351 0c41.26348681 0 74.89605506-33.63256826 74.89605506-74.89605507L408.5536786 638.75804062c0-7.06566585 5.65253266-12.7181985 12.7181985-12.7181985l154.03151101 0c7.06566585 0 12.7181985 5.65253266 12.7181985 12.7181985l0 209.14370175c0 41.26348681 33.63256826 74.89605506 74.89605506 74.89605506l128.595114 0c41.26348681 0 74.89605506-33.63256826 74.89605507-74.89605506L866.40881074 438.51707809l48.89440674 41.40480067c5.79384515 4.94596608 13.00082485 7.3482922 20.06649069 7.34829221 8.76142535 0 17.52285071-3.67414678 23.74063608-11.02243898C970.27409434 463.24690713 968.57833482 443.60435667 955.57750996 432.44060521z" fill="#ffffff" p-id="1368"></path></svg>