<?xml version="1.0" standalone="no"?><!DOCTYPE svg PUBLIC "-//W3C//DTD SVG 1.1//EN" "http://www.w3.org/Graphics/SVG/1.1/DTD/svg11.dtd"><svg t="1653748845273" class="icon" viewBox="0 0 1024 1024" version="1.1" xmlns="http://www.w3.org/2000/svg" p-id="1080" xmlns:xlink="http://www.w3.org/1999/xlink" width="23" height="23"><defs><style type="text/css">@font-face { font-family: feedback-iconfont; src: url("//at.alicdn.com/t/font_1031158_u69w8yhxdu.woff2?t=1630033759944") format("woff2"), url("//at.alicdn.com/t/font_1031158_u69w8yhxdu.woff?t=1630033759944") format("woff"), url("//at.alicdn.com/t/font_1031158_u69w8yhxdu.ttf?t=1630033759944") format("truetype"); }
</style></defs><path d="M960.13866667 251.15733333v-42.432a44.05333333 44.05333333 0 0 0-44.05333334-44.05333333H127.38133333a44.05333333 44.05333333 0 0 0-44.05333333 44.05333333v42.432a50.47466667 50.47466667 0 0 0 21.99466667 41.67466667l400.40533333 273.664a28.352 28.352 0 0 0 32 0l400.416-273.67466667a50.47466667 50.47466667 0 0 0 21.99466667-41.664z" fill="#ffffff" p-id="1081"></path><path d="M493.55733333 642.95466667L83.33866667 362.57066667V805.33333333a41.23733333 41.23733333 0 0 0 41.23733333 41.23733334h794.31466667A41.23733333 41.23733333 0 0 0 960.13866667 805.33333333V362.57066667L549.90933333 642.95466667a49.94133333 49.94133333 0 0 1-56.352 0z" fill="#ffffff" p-id="1082"></path></svg>